solid OBJECT
  facet normal 0 -1 -0
    outer loop
      vertex -31.487730026245117 0 0
      vertex 0 0 0
      vertex 0 0 12.281071662902832
    endloop
  endfacet
  facet normal 0 -1 -0
    outer loop
      vertex -31.487730026245117 0 0
      vertex 0 0 12.281071662902832
      vertex -31.487730026245117 0 12.281071662902832
    endloop
  endfacet
  facet normal 1 -0 0
    outer loop
      vertex 0 0 0
      vertex 0 20.702775955200195 0
      vertex 0 20.702775955200195 12.281071662902832
    endloop
  endfacet
  facet normal 1 -0 0
    outer loop
      vertex 0 0 0
      vertex 0 20.702775955200195 12.281071662902832
      vertex 0 0 12.281071662902832
    endloop
  endfacet
  facet normal 0 1 0
    outer loop
      vertex 0 20.702775955200195 0
      vertex -31.487730026245117 20.702775955200195 0
      vertex -31.487730026245117 20.702775955200195 12.281071662902832
    endloop
  endfacet
  facet normal 0 1 0
    outer loop
      vertex 0 20.702775955200195 0
      vertex -31.487730026245117 20.702775955200195 12.281071662902832
      vertex 0 20.702775955200195 12.281071662902832
    endloop
  endfacet
  facet normal -1 -0 -0
    outer loop
      vertex -31.487730026245117 20.702775955200195 0
      vertex -31.487730026245117 0 0
      vertex -31.487730026245117 0 12.281071662902832
    endloop
  endfacet
  facet normal -1 -0 -0
    outer loop
      vertex -31.487730026245117 20.702775955200195 0
      vertex -31.487730026245117 0 12.281071662902832
      vertex -31.487730026245117 20.702775955200195 12.281071662902832
    endloop
  endfacet
  facet normal -0 -0 -1
    outer loop
      vertex 0 0 0
      vertex -31.487730026245117 0 0
      vertex -31.487730026245117 20.702775955200195 0
    endloop
  endfacet
  facet normal 0 0 -1
    outer loop
      vertex -31.487730026245117 20.702775955200195 0
      vertex 0 20.702775955200195 0
      vertex 0 0 0
    endloop
  endfacet
  facet normal 0 -0 1
    outer loop
      vertex 0 0 12.281071662902832
      vertex -31.487730026245117 20.702775955200195 12.281071662902832
      vertex -31.487730026245117 0 12.281071662902832
    endloop
  endfacet
  facet normal 0 0 1
    outer loop
      vertex -31.487730026245117 20.702775955200195 12.281071662902832
      vertex 0 0 12.281071662902832
      vertex 0 20.702775955200195 12.281071662902832
    endloop
  endfacet
  facet normal 0 -1 -0
    outer loop
      vertex 12.514228820800781 -19.502162933349609 0
      vertex 24.142587661743164 -19.502162933349609 0
      vertex 24.142587661743164 -19.502162933349609 9.6770858764648438
    endloop
  endfacet
  facet normal 0 -1 -0
    outer loop
      vertex 12.514228820800781 -19.502162933349609 0
      vertex 24.142587661743164 -19.502162933349609 9.6770858764648438
      vertex 12.514228820800781 -19.502162933349609 9.6770858764648438
    endloop
  endfacet
  facet normal 1 -0 0
    outer loop
      vertex 24.142587661743164 -19.502162933349609 0
      vertex 24.142587661743164 3.2306313514709473 0
      vertex 24.142587661743164 3.2306313514709473 9.6770858764648438
    endloop
  endfacet
  facet normal 1 -0 0
    outer loop
      vertex 24.142587661743164 -19.502162933349609 0
      vertex 24.142587661743164 3.2306313514709473 9.6770858764648438
      vertex 24.142587661743164 -19.502162933349609 9.6770858764648438
    endloop
  endfacet
  facet normal 0 1 0
    outer loop
      vertex 24.142587661743164 3.2306313514709473 0
      vertex 12.514228820800781 3.2306313514709473 0
      vertex 12.514228820800781 3.2306313514709473 9.6770858764648438
    endloop
  endfacet
  facet normal 0 1 0
    outer loop
      vertex 24.142587661743164 3.2306313514709473 0
      vertex 12.514228820800781 3.2306313514709473 9.6770858764648438
      vertex 24.142587661743164 3.2306313514709473 9.6770858764648438
    endloop
  endfacet
  facet normal -1 -0 -0
    outer loop
      vertex 12.514228820800781 3.2306313514709473 0
      vertex 12.514228820800781 -19.502162933349609 0
      vertex 12.514228820800781 -19.502162933349609 9.6770858764648438
    endloop
  endfacet
  facet normal -1 -0 -0
    outer loop
      vertex 12.514228820800781 3.2306313514709473 0
      vertex 12.514228820800781 -19.502162933349609 9.6770858764648438
      vertex 12.514228820800781 3.2306313514709473 9.6770858764648438
    endloop
  endfacet
  facet normal 0 0 -1
    outer loop
      vertex 24.142587661743164 -19.502162933349609 0
      vertex 12.514228820800781 -19.502162933349609 0
      vertex 12.514228820800781 3.2306313514709473 0
    endloop
  endfacet
  facet normal -0 -0 -1
    outer loop
      vertex 12.514228820800781 3.2306313514709473 0
      vertex 24.142587661743164 3.2306313514709473 0
      vertex 24.142587661743164 -19.502162933349609 0
    endloop
  endfacet
  facet normal -0 -0 1
    outer loop
      vertex 24.142587661743164 -19.502162933349609 9.6770858764648438
      vertex 12.514228820800781 3.2306313514709473 9.6770858764648438
      vertex 12.514228820800781 -19.502162933349609 9.6770858764648438
    endloop
  endfacet
  facet normal 0 0 1
    outer loop
      vertex 12.514228820800781 3.2306313514709473 9.6770858764648438
      vertex 24.142587661743164 -19.502162933349609 9.6770858764648438
      vertex 24.142587661743164 3.2306313514709473 9.6770858764648438
    endloop
  endfacet
endsolid OBJECT
